<svg width="922" height="628" viewBox="0 0 922 628" fill="none" xmlns="http://www.w3.org/2000/svg">
<path d="M921.398 0L515.146 327.049C477.018 356.361 430.083 372.247 381.697 372.247H355.069C305.233 372.247 256.848 355.336 218.098 324.282L1.86523 151.277H161.942L288.656 253.358C336.005 291.484 403.869 291.484 451.219 253.358L766.606 0.102491H921.398V0Z" fill="#C9E960"/>
<path d="M736.04 627.855H573.892L440.443 519.625C397.963 485.085 336.627 484.983 293.94 519.317L158.729 627.958H0L220.17 454.031C258.712 423.591 306.683 406.987 356.001 406.987H381.282C430.807 406.987 478.882 423.693 517.528 454.441L736.04 627.958V627.855Z" fill="#C9E960"/>
</svg>
